#!OML:ASF H:\Pregnant\Project 1\Capture day 1\Session 1\femalepreg.ASF
:FULLY-SPECIFIED
:DEGREES
145
root 3.60134 12.1069 9.68924 70.9978 -5.75928 0.484105
lowerback -5.25503 -0.677967 5.81683
upperback -11.4768 -0.902401 1.0839
thorax -9.32406 -0.950003 -2.04943
lowerneck -57.913 1.2354 1.93346
upperneck 0.854235 -0.565907 2.85893
head 6.8523 0.0835728 0.798036
rclavicle -1.14301e-014 -3.47873e-016
rhumerus -33.6144 26.294 -95.1102
rradius 105.46
rwrist -30.1137
rhand -20.4547 -28.2038
rfingers 7.12502
rthumb 5.90085 -58.1017
lclavicle -1.14301e-014 -3.47873e-016
lhumerus -29.0275 -25.5317 88.1182
lradius 103.08
lwrist 61.0288
lhand -48.1491 13.037
lfingers 7.12502
lthumb -20.8117 41.9408
rfemur -140.361 -14.0074 39.8492
rtibia 81.4676
rfoot -12.214 6.67904
rtoes -11.2496
lfemur -132.033 13.535 -28.6066
ltibia 74.3796
lfoot -10.5672 -3.67978
ltoes -23.9625
146
root 3.59622 12.2403 9.72609 70.5411 -5.76358 0.463673
lowerback -5.14642 -0.676075 5.82476
upperback -11.4159 -0.893478 1.07492
thorax -9.31782 -0.944574 -2.06323
lowerneck -57.6995 1.19326 1.96095
upperneck 0.850843 -0.626399 2.85818
head 6.84345 0.0541527 0.781613
rclavicle 3.34952e-014 -2.04251e-014
rhumerus -33.6882 26.2989 -95.1772
rradius 105.268
rwrist -30.1014
rhand -20.2863 -28.3531
rfingers 7.12502
rthumb 6.0634 -58.2464
lclavicle 3.34952e-014 -2.04251e-014
lhumerus -29.18 -25.5227 88.183
lradius 102.858
lwrist 60.9455
lhand -47.9769 12.9787
lfingers 7.12502
lthumb -20.6462 41.9006
rfemur -138.525 -14.1902 39.1419
rtibia 80.2344
rfoot -12.1728 6.13379
rtoes -11.891
lfemur -130.175 13.5709 -28.0979
ltibia 72.9462
lfoot -10.391 -3.36407
ltoes -24.1399
147
root 3.59064 12.3784 9.76435 69.9724 -5.75565 0.4369
lowerback -4.94659 -0.67866 5.84562
upperback -11.3266 -0.88437 1.06621
thorax -9.33314 -0.939762 -2.08298
lowerneck -57.4908 1.14085 1.97541
upperneck 0.867658 -0.693954 2.8759
head 6.84271 0.024709 0.77342
rclavicle -1.39149e-015 2.2413e-014
rhumerus -33.7662 26.3096 -95.2433
rradius 105.066
rwrist -30.1273
rhand -20.1553 -28.4924
rfingers 7.12502
rthumb 6.18989 -58.382
lclavicle -1.39149e-015 2.2413e-014
lhumerus -29.337 -25.5213 88.2527
lradius 102.619
lwrist 60.845
lhand -47.7864 12.8796
lfingers 7.12502
lthumb -20.4631 41.8213
rfemur -136.528 -14.3901 38.417
rtibia 78.962
rfoot -12.1344 5.58718
rtoes -12.4728
lfemur -128.155 13.6138 -27.5533
ltibia 71.4578
lfoot -10.2098 -3.04605
ltoes -24.3336
148
root 3.58515 12.5189 9.80389 69.3229 -5.72884 0.42609
lowerback -4.69621 -0.691019 5.88348
upperback -11.2163 -0.885418 1.05446
thorax -9.35603 -0.941281 -2.11462
lowerneck -57.282 1.08185 1.98008
upperneck 0.900341 -0.766263 2.91289
head 6.84821 -0.00365477 0.773632
rclavicle -2.18663e-015 -7.05686e-015
rhumerus -33.8462 26.3255 -95.3111
rradius 104.848
rwrist -30.1884
rhand -20.0672 -28.5799
rfingers 7.12502
rthumb 6.27494 -58.467
lclavicle -2.18663e-015 -7.05686e-015
lhumerus -29.4952 -25.5278 88.3254
lradius 102.357
lwrist 60.7275
lhand -47.5966 12.6304
lfingers 7.12502
lthumb -20.2807 41.5916
rfemur -134.432 -14.6186 37.6871
rtibia 77.6596
rfoot -12.0871 5.04468
rtoes -13.0098
lfemur -126.011 13.6278 -26.9833
ltibia 69.9124
lfoot -10.0113 -2.72608
ltoes -24.5445
149
root 3.57964 12.6623 9.845 68.5726 -5.68755 0.427093
lowerback -4.37596 -0.713186 5.93435
upperback -11.0781 -0.895288 1.0391
thorax -9.3898 -0.947964 -2.15634
lowerneck -57.0788 1.01538 1.97296
upperneck 0.953355 -0.843721 2.97043
head 6.86194 -0.0308277 0.783014
rclavicle 3.18055e-015 -1.03865e-014
rhumerus -33.923 26.3479 -95.3771
rradius 104.614
rwrist -30.2806
rhand -20.0204 -28.601
rfingers 7.12502
rthumb 6.32016 -58.4867
lclavicle 3.18055e-015 -1.03865e-014
lhumerus -29.6501 -25.5441 88.4006
lradius 102.075
lwrist 60.6188
lhand -47.402 12.3891
lfingers 7.12502
lthumb -20.0937 41.3701
rfemur -132.207 -14.8745 36.9467
rtibia 76.3215
rfoot -12.032 4.51013
rtoes -13.5017
lfemur -123.716 13.6191 -26.3903
ltibia 68.3036
lfoot -9.79902 -2.40638
ltoes -24.7731
150
root 3.57423 12.8093 9.88794 67.7011 -5.62843 0.442553
lowerback -3.95215 -0.749199 6.00011
upperback -10.9157 -0.916394 1.02213
thorax -9.45926 -0.961701 -2.20612
lowerneck -56.871 0.947062 1.96175
upperneck 1.02952 -0.922529 3.03694
head 6.88433 -0.0567556 0.796372
rclavicle -4.96962e-015 1.16289e-014
rhumerus -34.0158 26.3736 -95.4452
rradius 104.373
rwrist -30.3759
rhand -19.9683 -28.6035
rfingers 7.12502
rthumb 6.37042 -58.4878
lclavicle -4.96962e-015 1.16289e-014
lhumerus -29.8175 -25.567 88.4841
lradius 101.78
lwrist 60.5453
lhand -47.2223 12.2345
lfingers 7.12502
lthumb -19.9209 41.2335
rfemur -129.825 -15.1662 36.195
rtibia 74.9355
rfoot -11.9673 3.98851
rtoes -13.965
lfemur -121.24 13.583 -25.7676
ltibia 66.613
lfoot -9.56257 -2.09162
ltoes -25.0116
151
root 3.56863 12.9622 9.9334 66.652 -5.55937 0.468364
lowerback -3.36373 -0.801826 6.07067
upperback -10.7133 -0.947941 1.00451
thorax -9.5823 -0.981042 -2.25638
lowerneck -56.6567 0.881327 1.95351
upperneck 1.12585 -0.999612 3.09769
head 6.91385 -0.0823026 0.80727
rclavicle 2.56432e-014 -3.926e-014
rhumerus -34.1223 26.4062 -95.5106
rradius 104.122
rwrist -30.4727
rhand -19.9052 -28.5803
rfingers 7.12502
rthumb 6.43136 -58.4626
lclavicle 2.56432e-014 -3.926e-014
lhumerus -29.9941 -25.594 88.5766
lradius 101.473
lwrist 60.5191
lhand -47.0563 12.2069
lfingers 7.12502
lthumb -19.7614 41.2224
rfemur -127.196 -15.5 35.4081
rtibia 73.4637
rfoot -11.8847 3.48133
rtoes -14.4032
lfemur -118.493 13.529 -25.1094
ltibia 64.8005
lfoot -9.29492 -1.78588
ltoes -25.2389
152
root 3.56181 13.1302 9.98402 65.2272 -5.48167 0.479235
lowerback -2.38961 -0.877503 6.14706
upperback -10.4192 -0.981934 0.989397
thorax -9.83185 -1.00191 -2.3015
lowerneck -56.4433 0.809383 1.93371
upperneck 1.24936 -1.07839 3.16436
head 6.95373 -0.107167 0.821908
rclavicle 6.21202e-015 -3.13086e-015
rhumerus -34.2399 26.4309 -95.5598
rradius 103.877
rwrist -30.5312
rhand -19.7385 -28.6409
rfingers 7.12502
rthumb 6.59226 -58.5183
lclavicle 6.21202e-015 -3.13086e-015
lhumerus -30.1819 -25.6255 88.6855
lradius 101.162
lwrist 60.5462
lhand -46.9086 12.3663
lfingers 7.12502
lthumb -19.6194 41.3963
rfemur -124.015 -15.8994 34.5302
rtibia 71.8407
rfoot -11.8114 2.98163
rtoes -14.824
lfemur -115.19 13.4981 -24.3625
ltibia 62.8095
lfoot -9.01883 -1.49638
ltoes -25.4469
153
root 3.5518 13.3287 10.0443 63.0884 -5.39211 0.425328
lowerback -0.646193 -0.987832 6.24396
upperback -9.93894 -1.0041 0.98091
thorax -10.3332 -1.01825 -2.3407
lowerneck -56.2251 0.728114 1.91058
upperneck 1.3852 -1.16328 3.21092
head 6.9977 -0.137729 0.827774
rclavicle 3.92351e-014 -1.08835e-014
rhumerus -34.3615 26.4492 -95.5918
rradius 103.628
rwrist -30.5906
rhand -19.5718 -28.7091
rfingers 7.12502
rthumb 6.75316 -58.5814
lclavicle 3.92351e-014 -1.08835e-014
lhumerus -30.3718 -25.677 88.8086
lradius 100.84
lwrist 60.6245
lhand -46.777 12.6193
lfingers 7.12502
lthumb -19.4929 41.6622
rfemur -119.764 -16.3864 33.4737
rtibia 69.9775
rfoot -11.8126 2.4785
rtoes -15.2036
lfemur -110.858 13.5537 -23.4252
ltibia 60.5772
lfoot -8.80012 -1.22771
ltoes -25.6371
154
root 3.53937 13.553 10.1148 60.2581 -5.2925 0.268459
lowerback 1.84296 -1.12462 6.38755
upperback -9.26814 -0.999432 0.984258
thorax -11.0774 -1.02486 -2.38545
lowerneck -56.0169 0.64238 1.88314
upperneck 1.54416 -1.24901 3.23982
head 7.05043 -0.170758 0.827116
rclavicle 3.80176e-015 -1.45361e-014
rhumerus -34.4777 26.4646 -95.6009
rradius 103.371
rwrist -30.6592
rhand -19.4009 -28.7937
rfingers 7.12502
rthumb 6.9182 -58.6606
lclavicle 3.80176e-015 -1.45361e-014
lhumerus -30.5578 -25.7409 88.9484
lradius 100.511
lwrist 60.7424
lhand -46.6728 12.9049
lfingers 7.12502
lthumb -19.3927 41.9579
rfemur -114.449 -16.8887 32.2714
rtibia 67.8525
rfoot -11.875 1.99089
rtoes -15.5537
lfemur -105.532 13.6948 -22.279
ltibia 58.1171
lfoot -8.63419 -0.984263
ltoes -25.8044
155
root 3.52486 13.7922 10.1953 56.8949 -5.23202 -0.0297488
lowerback 4.90211 -1.26599 6.55741
upperback -8.4424 -0.946413 1.00141
thorax -12.003 -1.00997 -2.43081
lowerneck -55.807 0.554432 1.85043
upperneck 1.72141 -1.33234 3.25477
head 7.10956 -0.204396 0.821978
rclavicle -4.89507e-015 1.57785e-014
rhumerus -34.589 26.4901 -95.5905
rradius 103.107
rwrist -30.7553
rhand -19.2653 -28.8714
rfingers 7.12502
rthumb 7.04903 -58.734
lclavicle -4.89507e-015 1.57785e-014
lhumerus -30.744 -25.8117 89.1062
lradius 100.173
lwrist 60.8847
lhand -46.5918 13.205
lfingers 7.12502
lthumb -19.3149 42.2658
rfemur -108.281 -17.2837 30.9734
rtibia 65.4986
rfoot -11.9727 1.54285
rtoes -15.8596
lfemur -99.4382 13.9378 -20.9704
ltibia 55.4989
lfoot -8.52331 -0.772005
ltoes -25.9566
156
root 3.51059 14.023 10.2806 53.4602 -5.2428 -0.416633
lowerback 8.01372 -1.38844 6.72395
upperback -7.58641 -0.852933 1.0228
thorax -12.9321 -0.976114 -2.4817
lowerneck -55.5938 0.474171 1.81994
upperneck 1.9122 -1.40617 3.25724
head 7.17308 -0.235137 0.813139
rclavicle 3.98501e-015 -4.25523e-015
rhumerus -34.6907 26.5318 -95.5673
rradius 102.831
rwrist -30.8809
rhand -19.1511 -28.9479
rfingers 7.12502
rthumb 7.1593 -58.8068
lclavicle 3.98501e-015 -4.25523e-015
lhumerus -30.927 -25.8853 89.2695
lradius 99.8175
lwrist 61.0203
lhand -46.5319 13.2847
lfingers 7.12502
lthumb -19.2572 42.3512
rfemur -101.968 -17.4965 29.7005
rtibia 63.0518
rfoot -12.0297 1.15086
rtoes -16.1541
lfemur -93.2284 14.2059 -19.6394
ltibia 52.8589
lfoot -8.42125 -0.580411
ltoes -26.0948
157
root 3.49802 14.2244 10.3631 50.4596 -5.33929 -0.812637
lowerback 10.5959 -1.46473 6.8393
upperback -6.84015 -0.737796 1.03988
thorax -13.6566 -0.927859 -2.52694
lowerneck -55.3683 0.417142 1.81389
upperneck 2.11121 -1.46391 3.23769
head 7.2381 -0.261265 0.794815
rclavicle 2.59041e-014 -7.36746e-015
rhumerus -34.7797 26.5878 -95.5394
rradius 102.541
rwrist -31.0295
rhand -19.0243 -29.0254
rfingers 7.12502
rthumb 7.28167 -58.8801
lclavicle 2.59041e-014 -7.36746e-015
lhumerus -31.1092 -25.9532 89.4279
lradius 99.4528
lwrist 61.1494
lhand -46.4752 13.3101
lfingers 7.12502
lthumb -19.2027 42.3821
rfemur -96.2988 -17.4958 28.5619
rtibia 60.6858
rfoot -11.9735 0.806194
rtoes -16.4391
lfemur -87.6328 14.441 -18.4579
ltibia 50.3455
lfoot -8.27172 -0.397035
ltoes -26.2291
158
root 3.48789 14.3867 10.4361 48.229 -5.49285 -1.14193
lowerback 12.2635 -1.48376 6.87787
upperback -6.30396 -0.627878 1.05236
thorax -14.0516 -0.8744 -2.54835
lowerneck -55.1071 0.387912 1.83241
upperneck 2.30855 -1.50054 3.20675
head 7.2998 -0.279157 0.771898
rclavicle 1.08586e-014 -1.63003e-014
rhumerus -34.8678 26.6676 -95.5171
rradius 102.24
rwrist -31.1988
rhand -18.8875 -29.0929
rfingers 7.12502
rthumb 7.41377 -58.943
lclavicle 1.08586e-014 -1.63003e-014
lhumerus -31.3106 -26.0054 89.5847
lradius 99.0918
lwrist 61.28
lhand -46.4282 13.3331
lfingers 7.12502
lthumb -19.1575 42.4095
rfemur -91.8065 -17.3175 27.6203
rtibia 58.5545
rfoot -11.7855 0.477569
rtoes -16.7212
lfemur -83.1521 14.5952 -17.5324
ltibia 48.0745
lfoot -8.03895 -0.199376
ltoes -26.3643
159
root 3.48026 14.5108 10.4963 46.8687 -5.66508 -1.36641
lowerback 12.8977 -1.44815 6.83788
upperback -6.00597 -0.54154 1.06121
thorax -14.0821 -0.822664 -2.53564
lowerneck -54.7913 0.389249 1.88483
upperneck 2.48795 -1.5157 3.15531
head 7.35073 -0.290409 0.739326
rclavicle -1.11816e-015 1.63997e-014
rhumerus -34.9636 26.7697 -95.505
rradius 101.928
rwrist -31.3841
rhand -18.7378 -29.1459
rfingers 7.12502
rthumb 7.55827 -58.9908
lclavicle -1.11816e-015 1.63997e-014
lhumerus -31.5374 -26.0453 89.7424
lradius 98.7343
lwrist 61.4139
lhand -46.3918 13.2588
lfingers 7.12502
lthumb -19.1225 42.3388
rfemur -88.6536 -17.0166 26.8761
rtibia 56.7293
rfoot -11.4792 0.131428
rtoes -17.0049
lfemur -79.9471 14.6478 -16.8894
ltibia 46.0889
lfoot -7.71407 0.0353451
ltoes -26.5115
